<?xml version="1.0" standalone="no"?>
<!DOCTYPE svg PUBLIC "-//W3C//DTD SVG 20010904//EN"
 "http://www.w3.org/TR/2001/REC-SVG-20010904/DTD/svg10.dtd">
<svg version="1.0" xmlns="http://www.w3.org/2000/svg"
 width="490.000000pt" height="495.000000pt" viewBox="0 0 490.000000 495.000000"
 preserveAspectRatio="xMidYMid meet">

<g transform="translate(0.000000,495.000000) scale(0.100000,-0.100000)"
fill="#000000" stroke="none">
<path d="M2367 4813 c-4 -3 -7 -64 -7 -135 0 -121 1 -128 20 -128 19 0 20 7
20 102 l0 102 68 -99 c94 -140 100 -138 104 24 3 118 1 131 -14 131 -15 0 -18
-13 -20 -97 l-3 -98 -64 95 c-73 108 -86 121 -104 103z"/>
<path d="M2095 4610 c-542 -97 -1027 -392 -1381 -840 -208 -263 -372 -636
-424 -965 -6 -38 -13 -80 -16 -92 -3 -17 0 -23 14 -23 14 0 20 15 30 82 45
282 163 588 323 833 266 407 685 734 1141 889 115 40 333 90 436 101 43 5 62
11 62 21 0 19 -58 17 -185 -6z"/>
<path d="M2652 4618 c3 -8 41 -18 92 -25 247 -36 460 -100 671 -203 233 -113
424 -248 600 -425 323 -322 529 -724 609 -1189 17 -96 21 -105 37 -89 7 7 6
38 -6 104 -159 928 -862 1644 -1783 1814 -149 28 -226 32 -220 13z"/>
<path d="M2285 4400 c-476 -49 -912 -261 -1240 -601 -267 -277 -430 -585 -512
-966 -26 -121 -28 -142 -27 -388 0 -244 1 -268 27 -386 53 -249 156 -495 293
-704 326 -493 855 -814 1444 -875 501 -52 988 85 1392 391 179 136 367 340
476 515 293 473 379 1015 245 1549 -84 339 -280 679 -525 910 -306 291 -658
468 -1073 540 -112 19 -380 27 -500 15z m378 -56 c23 -30 41 -31 32 -3 -7 21
-5 22 56 15 159 -18 474 -116 474 -148 0 -25 11 -30 24 -14 11 13 25 9 104
-31 296 -148 566 -387 742 -657 167 -256 270 -544 306 -860 15 -126 6 -402
-16 -526 -72 -398 -264 -771 -536 -1040 -246 -245 -532 -413 -864 -509 -54
-15 -221 -51 -240 -51 -2 0 -1 9 2 20 7 27 -5 25 -32 -4 -19 -21 -33 -24 -136
-30 -259 -15 -573 36 -819 133 -260 104 -479 250 -676 452 -217 224 -357 457
-459 762 -110 328 -124 710 -40 1055 131 537 508 1003 1022 1261 298 149 609
216 948 203 81 -4 92 -6 108 -28z"/>
<path d="M2720 4267 c0 -21 37 -64 46 -54 9 9 -18 59 -35 65 -6 2 -11 -3 -11
-11z"/>
<path d="M2797 4163 c-7 -12 29 -63 44 -63 15 0 10 18 -14 46 -14 16 -26 23
-30 17z"/>
<path d="M3166 4118 c-18 -25 -21 -48 -7 -48 10 0 41 45 41 60 0 17 -18 11
-34 -12z"/>
<path d="M2467 4053 c-2 -4 -8 -36 -12 -71 -5 -41 -12 -65 -23 -71 -13 -7 -14
-12 -4 -24 10 -11 4 -70 -28 -283 -52 -347 -89 -583 -95 -611 -3 -14 -27 -32
-72 -55 l-67 -34 -160 110 c-161 109 -205 133 -194 105 3 -8 49 -81 102 -162
53 -81 101 -158 107 -170 8 -18 4 -35 -20 -87 -17 -36 -31 -71 -31 -77 0 -7
-5 -13 -11 -13 -6 0 -192 -27 -413 -60 -220 -33 -452 -67 -514 -76 -74 -11
-112 -20 -109 -28 2 -6 49 -18 106 -27 56 -9 103 -18 105 -20 1 -2 7 -19 12
-37 12 -44 30 -41 26 4 -4 35 -3 35 30 29 36 -6 764 -115 771 -115 2 0 23 -32
47 -72 38 -64 41 -74 29 -92 -51 -82 -202 -332 -206 -343 -4 -11 1 -12 21 -7
17 4 35 0 51 -10 37 -24 53 -8 20 18 l-27 22 136 99 c75 55 143 104 150 109
10 7 30 2 63 -15 l48 -25 3 -203 2 -203 -25 6 c-32 8 -32 -9 0 -30 l25 -16 0
-386 0 -386 86 -85 86 -86 129 133 c71 73 129 138 129 144 0 6 -23 37 -51 69
l-50 58 25 34 c33 43 33 55 -4 97 -16 19 -29 39 -30 44 0 5 18 28 40 52 22 24
40 48 40 53 0 5 -20 33 -45 62 -25 29 -45 56 -45 59 0 3 18 24 40 45 l40 39 0
128 0 128 49 0 c28 0 52 4 56 9 3 6 -18 65 -46 132 -49 116 -50 123 -33 136
10 7 24 13 32 13 7 0 65 -37 128 -82 88 -64 114 -88 114 -105 0 -13 5 -23 10
-23 6 0 10 5 10 10 0 18 21 11 60 -20 35 -28 60 -38 60 -24 0 3 -27 47 -60 98
-51 79 -59 98 -54 124 5 25 3 32 -9 32 -8 0 -17 -5 -19 -12 -3 -7 -25 19 -50
57 l-45 70 24 40 c14 22 31 54 39 72 14 32 21 35 114 48 25 4 54 9 64 12 15 4
18 1 13 -16 -8 -31 11 -36 24 -7 7 14 19 28 28 30 9 3 143 24 299 46 273 40
284 41 298 23 13 -17 14 -17 20 3 5 18 19 22 98 33 89 13 126 24 115 35 -6 6
-581 96 -614 97 -30 0 -418 59 -423 64 -2 2 -21 38 -41 80 l-38 76 114 177
c63 97 115 181 116 186 3 18 -22 7 -85 -35 -60 -41 -73 -42 -80 -5 -1 11 -9
21 -17 24 -11 4 -13 -2 -8 -24 3 -16 8 -36 11 -44 4 -10 -23 -36 -85 -82 l-90
-66 -74 36 -74 37 -10 60 c-6 33 -33 213 -60 400 -28 187 -53 353 -56 368 l-5
28 30 -18 c16 -9 33 -13 37 -9 10 10 -25 36 -49 36 -10 0 -18 3 -18 8 0 4 -7
50 -15 102 -15 90 -27 122 -38 103z m10 -723 l-2 -325 -67 -11 c-53 -8 -68 -8
-68 2 0 6 27 189 60 407 33 217 61 405 61 418 1 13 6 -19 10 -71 5 -52 8 -241
6 -420z m557 -302 c-45 -56 -170 -178 -180 -178 -6 0 -17 6 -23 14 -10 12 8
30 101 100 62 47 115 86 117 86 2 0 -4 -10 -15 -22z m-1015 -104 c39 -42 71
-82 71 -89 0 -18 -29 -40 -39 -29 -8 9 -119 175 -135 202 -20 34 36 -12 103
-84z m571 35 c128 -29 276 -143 334 -257 61 -121 72 -280 28 -404 -39 -110
-142 -225 -246 -274 -20 -10 -36 -21 -36 -24 0 -4 20 -53 44 -108 67 -152 66
-142 7 -142 l-51 0 0 -137 0 -137 -47 -48 -46 -47 46 -57 c26 -31 47 -60 47
-64 0 -4 -18 -28 -40 -53 -22 -25 -40 -48 -40 -52 0 -4 16 -26 36 -51 l36 -44
-32 -40 -32 -40 44 -53 c25 -28 48 -58 52 -65 5 -8 -30 -53 -100 -128 l-108
-115 -73 73 -73 72 0 611 -1 610 -72 35 c-134 64 -244 200 -276 340 -62 270
118 545 394 600 58 11 153 11 205 -1z m855 -444 c209 -30 385 -57 390 -59 6
-3 -177 -5 -407 -5 l-416 -1 -4 66 -3 65 30 -5 c17 -3 201 -30 410 -61z
m-1489 -134 c8 -36 13 -66 11 -66 -1 -1 -189 26 -417 60 l-415 63 370 4 c204
2 385 4 404 3 34 0 34 0 47 -64z m985 -358 c87 -140 86 -143 -12 -46 -92 91
-93 92 -74 113 10 11 21 20 25 20 4 0 31 -39 61 -87z m-786 27 c10 -11 16 -22
14 -23 -56 -46 -209 -156 -209 -151 0 8 163 192 171 193 3 1 14 -8 24 -19z"/>
<path d="M2414 2866 c-97 -43 -119 -183 -40 -262 64 -64 158 -64 222 0 77 77
60 201 -35 254 -44 25 -101 28 -147 8z m126 -31 c46 -24 70 -62 70 -112 0 -82
-48 -133 -125 -133 -76 0 -125 51 -125 130 0 98 95 159 180 115z"/>
<path d="M2448 1973 c-2 -4 -2 -272 0 -595 3 -498 6 -588 18 -588 12 0 14 87
12 592 -2 437 -6 592 -15 595 -6 2 -13 0 -15 -4z"/>
<path d="M2876 4052 c-8 -13 29 -72 45 -72 16 0 10 24 -14 54 -16 20 -26 25
-31 18z"/>
<path d="M3437 4053 c-4 -3 -7 -21 -7 -40 0 -23 5 -33 15 -33 11 0 15 11 15
40 0 38 -8 49 -23 33z"/>
<path d="M3087 4001 c-20 -35 -21 -41 -4 -41 11 0 47 49 47 64 0 17 -28 2 -43
-23z"/>
<path d="M2290 3947 c0 -9 14 -17 36 -22 62 -11 59 17 -3 30 -26 5 -33 3 -33
-8z"/>
<path d="M2185 3920 c-16 -16 -26 -33 -22 -36 6 -7 77 47 77 59 0 17 -28 5
-55 -23z"/>
<path d="M2950 3931 c0 -4 9 -20 20 -34 26 -32 26 -33 -10 -74 -31 -34 -38
-53 -20 -53 8 0 49 50 105 126 14 20 -3 30 -22 12 -15 -16 -18 -15 -35 8 -19
24 -38 32 -38 15z"/>
<path d="M3432 3883 c2 -21 8 -38 13 -38 6 0 11 17 13 38 3 29 0 37 -13 37
-13 0 -16 -8 -13 -37z"/>
<path d="M2080 3815 c-17 -18 -21 -28 -13 -36 7 -7 17 -2 32 17 37 47 22 62
-19 19z"/>
<path d="M3030 3828 c0 -24 45 -74 54 -60 3 6 -7 26 -23 44 -23 24 -30 29 -31
16z"/>
<path d="M3442 3782 c-66 -24 -118 -65 -159 -126 -39 -58 -53 -103 -53 -178 0
-122 65 -225 176 -279 56 -28 77 -33 142 -33 65 -1 86 4 133 27 116 56 183
161 183 287 0 124 -60 227 -165 285 -70 38 -178 45 -257 17z m235 -40 c138
-71 197 -238 134 -379 -80 -180 -321 -224 -464 -85 -53 51 -79 105 -84 177
-11 138 62 252 194 301 54 20 167 13 220 -14z"/>
<path d="M3489 3665 c-29 -16 -55 -66 -45 -90 6 -16 76 -22 76 -6 0 17 30 40
46 34 33 -13 36 -41 6 -75 -61 -69 -68 -108 -21 -108 24 0 41 11 79 53 44 46
49 57 49 97 0 48 -9 66 -49 93 -30 21 -105 22 -141 2z"/>
<path d="M3532 3374 c-43 -30 -12 -84 41 -70 22 5 27 12 27 36 0 19 -7 33 -19
40 -25 13 -22 13 -49 -6z"/>
<path d="M1333 3759 c-72 -28 -155 -105 -184 -171 -33 -76 -32 -183 3 -259 35
-77 83 -128 153 -161 51 -23 73 -28 141 -28 70 0 89 4 142 30 69 35 125 92
156 159 33 72 30 198 -7 273 -31 62 -84 116 -149 149 -63 33 -185 36 -255 8z
m244 -38 c127 -64 189 -207 149 -344 -23 -79 -70 -135 -145 -174 -54 -28 -73
-33 -136 -33 -140 0 -245 82 -281 219 -39 156 53 310 211 352 52 14 156 4 202
-20z"/>
<path d="M1423 3661 c-65 -30 -100 -119 -74 -186 7 -16 -3 -32 -50 -82 -59
-61 -70 -88 -47 -111 24 -24 55 -12 102 38 25 27 46 56 46 65 0 18 2 18 50 4
79 -24 156 18 181 99 10 35 9 48 -5 87 -33 86 -122 124 -203 86z m112 -27 c89
-42 95 -168 10 -208 -44 -21 -73 -20 -112 4 -42 25 -67 73 -60 117 7 41 21 59
62 85 37 22 57 23 100 2z m-165 -252 c0 -12 -74 -82 -87 -82 -22 0 -15 18 23
59 21 24 41 38 50 34 8 -3 14 -8 14 -11z"/>
<path d="M1460 3620 c-16 -10 -12 -12 43 -25 17 -3 35 -18 45 -35 19 -33 32
-39 32 -14 0 26 -19 53 -50 69 -33 17 -49 18 -70 5z"/>
<path d="M2636 3771 c-3 -5 10 -19 30 -31 49 -28 68 -11 21 19 -39 24 -43 25
-51 12z"/>
<path d="M1992 3717 c-25 -27 -28 -37 -8 -37 12 0 46 40 46 55 0 12 -18 4 -38
-18z"/>
<path d="M2871 3712 c-38 -54 -21 -74 18 -21 15 20 20 34 13 41 -6 6 -17 -1
-31 -20z"/>
<path d="M3107 3723 c-6 -10 32 -73 46 -73 4 0 7 6 7 14 0 21 -45 71 -53 59z"/>
<path d="M2760 3689 c0 -11 39 -48 53 -49 20 -1 3 31 -23 45 -19 10 -30 12
-30 4z"/>
<path d="M1892 3617 c-22 -23 -29 -47 -14 -47 10 0 62 53 62 63 0 15 -28 6
-48 -16z"/>
<path d="M2812 3606 c2 -16 9 -31 16 -34 17 -5 15 20 -3 44 -15 18 -15 18 -13
-10z"/>
<path d="M3205 3620 c3 -5 10 -10 16 -10 5 0 9 5 9 10 0 6 -7 10 -16 10 -8 0
-12 -4 -9 -10z"/>
<path d="M1810 3525 c-19 -23 -7 -39 13 -17 10 11 14 23 9 26 -5 3 -15 -1 -22
-9z"/>
<path d="M2844 3488 c7 -34 22 -56 32 -46 9 10 -16 78 -28 78 -6 0 -8 -12 -4
-32z"/>
<path d="M2880 3368 c1 -13 7 -34 14 -47 19 -34 30 -9 16 34 -13 39 -30 47
-30 13z"/>
<path d="M796 3361 c-3 -5 6 -16 20 -26 26 -17 41 -15 29 4 -10 17 -43 32 -49
22z"/>
<path d="M880 3282 c0 -14 56 -63 63 -55 4 3 -5 19 -20 35 -27 28 -43 35 -43
20z"/>
<path d="M2920 3241 c0 -19 23 -71 31 -71 12 0 11 22 -1 54 -9 24 -30 36 -30
17z"/>
<path d="M3860 3190 c0 -18 30 -70 40 -70 14 0 12 16 -5 50 -15 29 -35 40 -35
20z"/>
<path d="M980 3182 c0 -14 49 -56 57 -49 3 4 -4 18 -17 32 -24 25 -40 32 -40
17z"/>
<path d="M3435 3098 c-9 -22 -2 -68 10 -71 14 -3 19 63 6 76 -7 7 -12 5 -16
-5z"/>
<path d="M1080 3081 c0 -4 10 -20 21 -35 15 -19 25 -24 32 -17 8 8 4 18 -13
36 -24 25 -40 32 -40 16z"/>
<path d="M3926 3071 c-7 -10 25 -71 37 -71 11 0 8 18 -8 50 -17 32 -21 35 -29
21z"/>
<path d="M1170 2982 c0 -16 32 -52 46 -52 20 0 17 13 -9 38 -24 23 -37 28 -37
14z"/>
<path d="M3435 2958 c-9 -22 -2 -68 10 -71 14 -3 19 63 6 76 -7 7 -12 5 -16
-5z"/>
<path d="M3990 2940 c0 -18 30 -70 40 -70 14 0 12 16 -5 50 -15 29 -35 40 -35
20z"/>
<path d="M4125 2940 c-3 -5 -4 -14 0 -19 3 -6 -4 -15 -15 -21 -29 -16 -15 -31
26 -27 44 5 54 15 31 31 -9 7 -17 18 -17 24 0 16 -18 24 -25 12z"/>
<path d="M4272 2922 c-30 -9 -24 -28 8 -24 38 4 52 11 45 22 -7 11 -18 11 -53
2z"/>
<path d="M1162 2867 c-22 -24 -29 -47 -14 -47 12 0 52 44 52 58 0 18 -14 14
-38 -11z"/>
<path d="M3037 2853 c-9 -15 7 -66 22 -71 10 -3 11 4 6 29 -8 38 -20 55 -28
42z"/>
<path d="M3987 2820 c-18 -26 -23 -60 -8 -60 11 0 34 56 29 71 -3 8 -11 4 -21
-11z"/>
<path d="M3430 2790 c0 -22 4 -40 10 -40 12 0 24 45 16 65 -11 29 -26 15 -26
-25z"/>
<path d="M4166 2812 c-10 -17 6 -72 21 -72 11 0 13 8 8 33 -8 37 -20 53 -29
39z"/>
<path d="M1066 2766 c-17 -14 -26 -29 -21 -36 5 -8 16 -3 36 16 47 45 36 61
-15 20z"/>
<path d="M3074 2698 c7 -34 22 -56 32 -46 9 10 -16 78 -28 78 -6 0 -8 -12 -4
-32z"/>
<path d="M3924 2679 c-10 -21 -12 -35 -6 -41 7 -7 16 0 26 20 9 17 16 36 16
42 0 21 -20 9 -36 -21z"/>
<path d="M1025 2690 c-7 -12 22 -70 35 -70 13 0 13 4 -4 45 -16 37 -21 41 -31
25z"/>
<path d="M3430 2650 c0 -22 5 -40 10 -40 6 0 10 18 10 40 0 22 -4 40 -10 40
-5 0 -10 -18 -10 -40z"/>
<path d="M4190 2657 c0 -13 7 -32 15 -43 14 -18 14 -18 15 8 0 32 -9 58 -21
58 -5 0 -9 -10 -9 -23z"/>
<path d="M3871 2559 c-14 -40 -14 -49 -1 -49 13 0 41 61 34 72 -10 16 -22 7
-33 -23z"/>
<path d="M1074 2544 c8 -33 23 -51 33 -41 10 11 -10 60 -26 65 -11 4 -12 -2
-7 -24z"/>
<path d="M4214 2528 c3 -13 6 -31 6 -40 0 -10 7 -18 16 -18 12 0 14 7 9 33 -9
39 -13 47 -27 47 -6 0 -8 -10 -4 -22z"/>
<path d="M4197 2412 c-21 -22 -21 -32 -4 -32 14 0 47 31 47 43 0 14 -27 7 -43
-11z"/>
<path d="M4116 2337 c-18 -15 -26 -28 -22 -36 6 -9 16 -5 37 15 47 45 36 61
-15 21z"/>
<path d="M675 2320 c-6 -10 1 -14 47 -24 33 -7 46 9 19 23 -25 14 -58 14 -66
1z"/>
<path d="M3760 2301 c-13 -25 -13 -51 0 -51 10 0 30 41 30 61 0 16 -19 10 -30
-10z"/>
<path d="M824 2298 c-9 -14 0 -19 45 -25 25 -3 41 -2 41 4 0 15 -78 34 -86 21z"/>
<path d="M970 2265 c0 -15 66 -33 77 -21 10 10 -9 23 -44 29 -25 5 -33 3 -33
-8z"/>
<path d="M1115 2235 c-20 -36 -15 -56 8 -37 8 7 29 9 50 5 45 -7 47 1 7 22
-19 10 -27 20 -24 30 12 31 -23 14 -41 -20z"/>
<path d="M4070 2254 c1 -22 33 -64 49 -64 14 0 -10 50 -33 69 -14 11 -16 11
-16 -5z"/>
<path d="M3124 2196 c-3 -14 -4 -33 -1 -43 3 -14 7 -10 20 17 8 19 13 38 11
42 -10 15 -24 8 -30 -16z"/>
<path d="M3716 2181 c-16 -25 -24 -61 -16 -66 9 -6 40 44 40 65 0 12 -17 13
-24 1z"/>
<path d="M1260 2170 c0 -14 62 -50 73 -43 6 3 -3 17 -19 30 -31 24 -54 30 -54
13z"/>
<path d="M1052 2123 c-23 -33 -28 -53 -12 -53 15 0 42 47 38 67 -3 15 -7 12
-26 -14z"/>
<path d="M4150 2138 c1 -17 35 -58 49 -58 16 0 14 8 -10 41 -21 30 -39 38 -39
17z"/>
<path d="M3345 2120 c-3 -5 0 -13 8 -16 23 -8 82 0 82 11 0 14 -82 19 -90 5z"/>
<path d="M3076 2091 c-33 -34 -17 -55 17 -24 12 11 30 23 40 26 10 4 15 11 12
17 -11 18 -41 10 -69 -19z"/>
<path d="M3200 2110 c0 -5 20 -10 45 -10 25 0 45 5 45 10 0 6 -20 10 -45 10
-25 0 -45 -4 -45 -10z"/>
<path d="M1380 2101 c0 -12 54 -51 69 -51 22 0 10 21 -21 40 -36 22 -48 25
-48 11z"/>
<path d="M3490 2090 c0 -10 52 -40 70 -40 20 0 9 20 -20 35 -34 17 -50 19 -50
5z"/>
<path d="M3662 2050 c-7 -11 -19 -20 -27 -20 -8 0 -15 -4 -15 -9 0 -12 54 -51
69 -51 16 0 14 15 -4 30 -11 9 -12 17 -5 30 21 39 5 56 -18 20z"/>
<path d="M4230 2028 c0 -18 48 -64 57 -55 8 8 -27 59 -45 65 -7 2 -12 -3 -12
-10z"/>
<path d="M986 2006 c-17 -27 -21 -56 -8 -56 4 0 16 14 26 31 23 39 7 62 -18
25z"/>
<path d="M1512 2019 c5 -16 56 -44 65 -35 9 9 -35 45 -55 46 -8 0 -12 -5 -10
-11z"/>
<path d="M1630 1948 c0 -18 61 -51 72 -40 6 6 -4 18 -25 31 -40 24 -47 26 -47
9z"/>
<path d="M3768 1910 c33 -30 52 -38 52 -21 0 14 -50 51 -69 51 -11 0 -6 -10
17 -30z"/>
<path d="M916 1875 c-18 -27 -21 -45 -7 -45 10 0 41 45 41 60 0 18 -17 11 -34
-15z"/>
<path d="M1760 1868 c0 -13 53 -48 71 -48 20 0 7 19 -25 39 -39 24 -46 26 -46
9z"/>
<path d="M3860 1842 c0 -5 14 -18 30 -31 40 -29 62 -16 24 15 -29 23 -54 31
-54 16z"/>
<path d="M846 1755 c-18 -27 -21 -45 -7 -45 12 0 41 40 41 57 0 21 -16 15 -34
-12z"/>
<path d="M3980 1752 c0 -12 44 -52 58 -52 21 0 13 18 -17 39 -31 23 -41 26
-41 13z"/>
<path d="M2990 1704 c0 -45 24 -42 28 4 2 24 -1 32 -12 32 -12 0 -16 -10 -16
-36z"/>
<path d="M2006 1711 c-5 -7 55 -51 70 -51 15 0 -1 29 -25 43 -33 20 -38 20
-45 8z"/>
<path d="M1365 1681 c-93 -24 -172 -91 -213 -179 -37 -78 -39 -204 -4 -273 57
-116 150 -179 275 -187 92 -5 166 21 236 84 74 66 105 138 105 239 0 67 -4 89
-27 136 -32 66 -99 132 -163 160 -49 22 -162 33 -209 20z m163 -36 c171 -51
257 -247 179 -407 -65 -132 -208 -195 -351 -154 -84 25 -168 108 -191 190 -34
116 0 235 89 313 77 67 173 88 274 58z"/>
<path d="M1364 1535 c-5 -22 -11 -25 -54 -25 -83 0 -80 6 -80 -154 0 -97 4
-146 12 -154 17 -17 389 -17 406 0 8 8 12 56 12 150 l0 138 -26 10 c-14 6 -42
10 -63 10 -31 0 -40 5 -49 25 -11 23 -17 25 -82 25 -66 0 -70 -1 -76 -25z
m131 -15 c4 -6 -15 -10 -49 -10 -31 0 -56 5 -56 10 0 6 22 10 49 10 28 0 53
-4 56 -10z m133 -83 c3 -35 1 -39 -34 -53 -52 -22 -104 -29 -104 -15 0 7 -19
11 -50 11 -27 0 -50 -4 -50 -10 0 -16 -41 -11 -87 10 -40 18 -43 22 -43 60 l0
40 183 -2 182 -3 3 -38z m-286 -100 c30 -7 48 -18 51 -29 7 -26 87 -26 94 0 3
13 21 22 61 31 31 7 63 15 70 18 9 3 12 -13 12 -66 l0 -71 -185 0 -185 0 0 71
c0 64 2 70 18 64 9 -4 38 -12 64 -18z m118 3 c0 -13 -7 -20 -20 -20 -13 0 -20
7 -20 20 0 13 7 20 20 20 13 0 20 -7 20 -20z"/>
<path d="M3449 1677 c-153 -43 -242 -157 -243 -312 -1 -68 3 -88 27 -137 33
-67 90 -129 149 -160 36 -19 59 -23 138 -23 80 0 103 4 144 24 200 99 244 363
86 521 -78 78 -203 114 -301 87z m191 -49 c180 -77 232 -326 97 -466 -57 -60
-111 -85 -193 -90 -93 -6 -150 14 -215 75 -128 119 -126 332 4 437 56 44 80
57 136 66 59 9 114 3 171 -22z"/>
<path d="M3411 1471 c-57 -48 -103 -92 -103 -97 1 -22 25 -8 120 72 l102 86
100 -87 c74 -64 105 -85 118 -80 14 5 11 11 -20 37 -35 28 -38 34 -38 84 l0
54 -40 0 c-24 0 -42 -6 -48 -15 -7 -13 -12 -12 -32 10 -13 14 -31 25 -39 25
-9 0 -63 -40 -120 -89z m249 17 c0 -30 -1 -31 -16 -16 -9 9 -14 24 -11 32 11
27 27 17 27 -16z"/>
<path d="M3438 1422 l-78 -67 0 -86 0 -86 61 -7 c34 -3 65 -3 70 0 5 3 9 27 9
55 0 48 1 49 29 49 29 0 30 -2 33 -52 l3 -53 44 -3 c88 -6 91 -3 91 92 l0 84
-79 71 c-43 39 -85 71 -92 70 -8 0 -49 -30 -91 -67z m163 -23 l69 -61 0 -64 0
-64 -39 0 -40 0 -3 48 -3 47 -57 3 -58 3 0 -51 0 -50 -40 0 -40 0 0 68 0 67
68 57 c37 32 69 57 71 58 2 0 34 -27 72 -61z"/>
<path d="M781 1641 c-12 -16 -21 -34 -21 -41 0 -20 24 -5 43 27 24 41 5 52
-22 14z"/>
<path d="M4090 1660 c0 -12 50 -59 63 -60 18 0 4 28 -23 48 -33 25 -40 27 -40
12z"/>
<path d="M2134 1639 c-7 -12 -7 -12 33 -33 37 -18 43 -19 43 -7 0 15 -69 51
-76 40z"/>
<path d="M2987 1580 c-7 -32 0 -60 14 -60 5 0 9 20 9 45 0 51 -14 60 -23 15z"/>
<path d="M2993 1489 c-19 -7 -23 -16 -23 -54 0 -33 4 -45 15 -45 10 0 15 11
15 35 0 22 6 37 18 44 25 14 3 31 -25 20z"/>
<path d="M2866 1461 c-37 -8 -47 -31 -13 -31 36 0 57 10 57 26 0 8 -3 13 -7
13 -5 -1 -21 -4 -37 -8z"/>
<path d="M2708 1423 c-10 -2 -18 -11 -18 -20 0 -11 7 -13 33 -8 39 9 47 13 47
26 0 9 -31 10 -62 2z"/>
<path d="M2977 1323 c-11 -10 -8 -73 3 -73 6 0 10 18 10 40 0 41 -2 45 -13 33z"/>
<path d="M2966 1183 c-3 -3 -6 -21 -6 -40 0 -23 5 -33 15 -33 10 0 15 10 15
34 0 34 -11 52 -24 39z"/>
<path d="M1780 1102 c0 -5 16 -16 36 -26 47 -22 71 -5 26 18 -34 17 -62 21
-62 8z"/>
<path d="M1920 1040 c0 -5 16 -17 36 -25 44 -18 44 -18 44 -1 0 8 -14 19 -31
25 -39 14 -49 14 -49 1z"/>
<path d="M2956 1019 c-6 -32 -1 -49 15 -49 5 0 9 18 9 40 0 47 -15 53 -24 9z"/>
<path d="M2056 982 c-8 -13 65 -45 77 -33 6 6 -2 15 -21 25 -35 18 -48 20 -56
8z"/>
<path d="M2196 933 c-11 -12 -6 -20 19 -31 30 -14 55 -15 55 -4 0 11 -66 42
-74 35z"/>
<path d="M2926 898 c-9 -12 -16 -32 -16 -43 1 -18 4 -16 25 10 26 31 32 55 16
55 -6 0 -17 -10 -25 -22z"/>
<path d="M2850 768 c-18 -29 -18 -48 -2 -48 8 0 42 57 42 71 0 20 -21 7 -40
-23z"/>
<path d="M2785 649 c-9 -17 -14 -34 -10 -37 8 -9 45 36 45 54 0 24 -19 15 -35
-17z"/>
<path d="M104 2533 c4 -16 19 -75 34 -133 23 -89 30 -105 47 -105 17 0 24 15
46 100 30 113 30 112 65 -22 16 -62 22 -73 40 -73 19 0 25 13 53 125 17 68 31
127 31 130 0 3 -8 5 -18 5 -15 0 -22 -19 -42 -102 l-23 -103 -14 50 c-8 28
-21 74 -30 103 -10 38 -19 52 -32 52 -14 0 -23 -19 -41 -87 -13 -49 -26 -94
-30 -101 -3 -7 -17 32 -30 88 -20 83 -27 100 -43 100 -15 0 -17 -5 -13 -27z"/>
<path d="M4614 2547 c-2 -7 -3 -67 -2 -133 l3 -119 84 0 c57 0 86 4 88 12 3 8
-16 13 -64 15 l-68 3 -3 43 -3 42 60 0 c46 0 61 4 61 14 0 18 -22 26 -76 26
l-44 0 0 40 0 40 65 0 c51 0 65 3 65 15 0 20 -158 22 -166 2z"/>
<path d="M275 2148 c102 -643 444 -1182 975 -1537 295 -197 650 -328 963 -357
68 -6 77 -5 77 10 0 9 -4 16 -9 16 -28 0 -179 24 -261 41 -321 68 -638 219
-914 437 -166 131 -373 365 -496 562 -140 223 -255 533 -292 788 -10 69 -15
82 -31 82 -16 0 -18 -5 -12 -42z"/>
<path d="M4636 2178 c-2 -7 -9 -47 -16 -88 -52 -330 -217 -708 -424 -970 -340
-431 -833 -728 -1353 -814 -49 -8 -109 -17 -135 -21 -34 -4 -48 -11 -48 -22 0
-13 10 -15 68 -9 391 39 840 232 1157 498 318 266 552 605 684 991 65 189 111
435 84 444 -7 3 -15 -1 -17 -9z"/>
<path d="M2430 343 c-74 -27 -62 -119 18 -138 60 -13 82 -27 82 -51 0 -47 -66
-59 -106 -19 -26 26 -54 33 -54 14 0 -6 13 -24 29 -40 59 -58 171 -28 171 46
0 39 -23 60 -85 76 -49 13 -65 26 -65 50 0 43 92 50 105 9 6 -20 45 -29 45
-11 0 50 -79 86 -140 64z"/>
</g>
</svg>
