<?xml version="1.0" standalone="no"?>
<!DOCTYPE svg PUBLIC "-//W3C//DTD SVG 20010904//EN"
 "http://www.w3.org/TR/2001/REC-SVG-20010904/DTD/svg10.dtd">
<svg version="1.0" xmlns="http://www.w3.org/2000/svg"
 width="526.000000pt" height="644.000000pt" viewBox="0 0 526.000000 644.000000"
 preserveAspectRatio="xMidYMid meet">

<g transform="translate(0.000000,644.000000) scale(0.100000,-0.100000)"
fill="#000000" stroke="none">
<path d="M2520 6105 c0 -128 1 -135 20 -135 18 0 20 8 22 102 l3 101 68 -101
c48 -73 73 -102 87 -102 19 0 20 7 20 135 0 128 -1 135 -20 135 -18 0 -20 -8
-22 -102 l-3 -101 -68 101 c-48 73 -73 102 -87 102 -19 0 -20 -7 -20 -135z"/>
<path d="M2310 6044 c-389 -56 -783 -227 -1096 -475 -181 -144 -367 -347 -497
-544 -141 -213 -268 -524 -321 -788 -30 -146 -33 -197 -12 -197 10 0 17 25 26
83 29 200 115 469 214 666 310 617 896 1062 1581 1200 55 11 130 23 168 27 56
6 67 10 67 25 0 22 0 22 -130 3z"/>
<path d="M2820 6041 c0 -17 6 -21 33 -21 19 0 85 -9 148 -20 460 -82 863 -289
1198 -615 135 -131 208 -220 311 -377 171 -260 285 -554 336 -863 13 -79 21
-105 32 -105 20 0 12 89 -24 247 -128 574 -478 1077 -979 1405 -300 197 -616
311 -1007 363 -44 6 -48 4 -48 -14z"/>
<path d="M2440 5814 c-14 -2 -65 -9 -115 -15 -315 -39 -686 -200 -959 -417
-423 -337 -685 -806 -757 -1357 -15 -118 -6 -459 16 -580 91 -504 364 -957
755 -1255 289 -220 572 -343 935 -407 143 -25 525 -25 645 0 327 69 557 160
790 314 321 212 552 476 715 816 112 234 172 452 196 717 37 406 -70 857 -290
1218 -146 240 -378 479 -621 639 -225 149 -502 260 -775 309 -86 15 -474 29
-535 18z m394 -61 c25 -29 49 -26 25 3 -13 16 -9 17 57 11 93 -9 295 -60 412
-104 76 -30 91 -39 87 -54 -8 -24 11 -34 24 -12 9 17 18 14 105 -31 427 -219
763 -586 942 -1028 213 -529 192 -1108 -60 -1623 -166 -338 -400 -600 -724
-809 -170 -110 -471 -231 -672 -271 -47 -9 -93 -19 -103 -22 -16 -4 -18 -1
-12 16 4 15 2 21 -9 21 -8 0 -17 -9 -21 -19 -8 -28 -31 -31 -232 -31 -282 0
-505 38 -729 123 -1097 420 -1601 1675 -1096 2731 284 594 864 1021 1507 1110
155 22 193 24 343 20 130 -3 133 -3 156 -31z"/>
<path d="M2895 5680 c-8 -13 34 -72 46 -65 5 4 2 19 -6 35 -18 34 -31 44 -40
30z"/>
<path d="M2970 5558 c1 -7 11 -26 24 -42 31 -37 45 -16 16 24 -22 31 -40 39
-40 18z"/>
<path d="M3346 5509 c-24 -41 -10 -51 20 -14 27 34 30 45 11 45 -7 0 -21 -14
-31 -31z"/>
<path d="M3055 5450 c-11 -18 37 -81 51 -67 6 5 -33 77 -41 77 -2 0 -7 -4 -10
-10z"/>
<path d="M2626 5433 c-3 -10 -8 -40 -12 -66 -3 -26 -13 -55 -21 -63 -11 -10
-12 -18 -5 -27 10 -12 -26 -280 -101 -744 l-32 -202 -70 -35 -70 -36 -85 58
c-47 31 -126 86 -176 121 -51 35 -97 62 -103 60 -7 -3 41 -85 109 -189 66
-101 119 -187 118 -190 -50 -116 -76 -161 -93 -165 -11 -3 -249 -39 -530 -81
-280 -41 -512 -78 -514 -80 -11 -11 20 -22 94 -33 125 -19 124 -19 135 -62 14
-53 35 -52 26 1 -6 38 -5 40 16 35 13 -2 120 -18 238 -35 118 -17 296 -43 394
-58 l179 -27 44 -73 44 -73 -69 -107 c-94 -145 -162 -260 -162 -272 0 -12 17
-13 24 -1 4 5 24 0 45 -12 48 -26 67 -14 28 18 l-29 22 136 102 c185 137 164
128 224 100 l52 -24 0 -219 0 -218 -24 16 c-16 10 -27 12 -31 6 -4 -6 7 -18
24 -28 l31 -17 0 -395 0 -395 84 -84 c54 -53 90 -82 101 -79 10 1 73 62 142
135 l124 131 -56 66 -56 66 32 40 33 40 -22 28 c-59 73 -59 66 -8 125 l45 54
-49 58 -49 58 45 51 44 51 0 127 0 128 44 0 c74 0 75 12 13 153 l-55 124 31
15 c30 14 31 14 154 -75 97 -71 123 -95 123 -113 0 -27 17 -33 22 -8 2 12 13
8 50 -20 43 -33 68 -44 68 -30 0 3 -27 48 -60 101 -52 82 -60 100 -54 128 7
37 -10 57 -20 22 l-6 -22 -19 25 c-11 13 -34 49 -52 78 -29 48 -31 56 -19 75
8 12 27 45 42 73 l28 52 76 11 c99 15 104 14 104 -9 0 -28 18 -25 31 4 13 28
15 29 354 76 121 17 232 33 248 36 20 4 27 2 27 -10 0 -21 12 -20 31 2 11 13
43 22 112 31 85 12 118 23 105 36 -2 2 -137 24 -301 48 -163 25 -304 50 -311
56 -8 7 -17 8 -20 3 -3 -5 -89 3 -198 19 -261 39 -245 34 -259 77 -6 20 -22
56 -36 80 l-24 42 46 75 c26 41 51 75 56 75 5 0 9 6 9 13 0 7 27 55 60 106 34
51 62 98 63 105 3 18 -21 8 -84 -34 -32 -22 -60 -40 -63 -40 -2 0 -10 16 -16
35 -15 45 -35 46 -27 3 3 -18 8 -40 11 -48 4 -10 -23 -35 -90 -83 l-96 -68
-72 37 c-39 20 -72 38 -73 39 -7 5 -113 684 -129 830 l-7 59 27 -18 c18 -11
32 -14 38 -8 12 12 -36 44 -54 37 -11 -4 -17 16 -26 82 -16 109 -22 133 -32
133 -5 0 -11 -8 -14 -17z m12 -707 l-3 -360 -70 -12 c-38 -6 -71 -10 -73 -9
-2 2 8 72 22 156 24 148 87 564 103 679 l7 55 8 -75 c5 -41 7 -237 6 -434z
m564 -353 c-17 -21 -61 -69 -99 -106 -69 -67 -69 -68 -91 -49 l-21 19 117 86
c64 47 119 86 120 86 2 1 -10 -16 -26 -36z m-962 -179 c0 -6 -8 -18 -18 -28
-18 -15 -22 -11 -95 99 -43 63 -77 118 -77 122 0 4 43 -35 95 -87 52 -52 95
-100 95 -106z m525 121 c210 -55 360 -227 387 -443 11 -82 10 -98 -10 -178
-12 -49 -36 -111 -54 -142 -41 -67 -140 -162 -202 -191 -25 -13 -46 -28 -46
-35 0 -7 23 -63 50 -126 28 -63 50 -117 50 -121 0 -5 -24 -9 -52 -11 l-53 -3
-3 -139 -3 -140 -45 -48 c-50 -54 -52 -44 13 -122 18 -22 33 -44 33 -49 0 -4
-19 -31 -42 -58 -30 -36 -39 -54 -33 -63 6 -8 23 -30 39 -50 l29 -37 -32 -39
-32 -40 56 -67 55 -68 -115 -115 -115 -115 -75 75 -75 74 0 627 0 627 -48 20
c-214 92 -346 324 -313 550 43 296 349 501 636 427z m1260 -517 c11 -3 -172
-6 -407 -7 l-428 -1 0 39 c0 21 -3 52 -6 68 l-6 29 414 -62 c227 -33 422 -64
433 -66z m-1929 -55 c4 -27 11 -59 16 -72 8 -21 6 -23 -19 -19 -16 3 -208 31
-427 64 l-399 59 234 5 c129 3 314 7 411 8 l177 2 7 -47z m1031 -408 c38 -60
73 -117 77 -125 5 -8 -38 31 -95 87 l-103 102 24 26 c13 14 24 24 26 22 1 -1
33 -51 71 -112z m-822 47 l24 -19 -86 -64 c-163 -121 -171 -126 -147 -98 50
59 178 199 182 199 2 0 14 -8 27 -18z"/>
<path d="M2574 4221 c-63 -29 -89 -72 -89 -151 0 -79 26 -122 89 -151 52 -23
90 -23 142 0 58 26 87 72 91 140 5 74 -24 127 -87 159 -54 27 -92 28 -146 3z
m106 -21 c30 0 79 -48 91 -91 31 -101 -54 -191 -159 -168 -95 21 -131 141 -66
219 25 30 77 52 102 44 8 -2 22 -4 32 -4z"/>
<path d="M2600 2700 c0 -536 2 -610 15 -610 13 0 15 74 15 610 0 536 -2 610
-15 610 -13 0 -15 -74 -15 -610z"/>
<path d="M3620 5410 c0 -29 4 -40 15 -40 11 0 15 11 15 40 0 29 -4 40 -15 40
-11 0 -15 -11 -15 -40z"/>
<path d="M3271 5399 c-15 -20 -20 -34 -13 -41 6 -6 17 1 31 20 38 54 21 74
-18 21z"/>
<path d="M2337 5322 c-26 -27 -35 -52 -19 -52 14 0 73 66 66 73 -12 12 -19 8
-47 -21z"/>
<path d="M2440 5340 c0 -9 19 -16 64 -22 28 -4 31 18 4 26 -35 9 -68 7 -68 -4z"/>
<path d="M3130 5327 c0 -7 13 -28 30 -47 l29 -35 25 30 c16 20 21 33 15 40 -7
7 -15 3 -25 -10 -15 -20 -16 -20 -35 8 -22 29 -39 35 -39 14z"/>
<path d="M3620 5270 c0 -29 4 -40 15 -40 11 0 15 11 15 40 0 29 -4 40 -15 40
-11 0 -15 -11 -15 -40z"/>
<path d="M3136 5214 c-14 -21 -26 -42 -26 -46 0 -18 21 -6 46 27 19 25 24 39
17 46 -8 8 -19 -1 -37 -27z"/>
<path d="M2237 5212 c-26 -28 -35 -52 -19 -52 9 0 44 36 56 57 14 25 -12 21
-37 -5z"/>
<path d="M3210 5216 c0 -19 46 -73 55 -65 7 8 -34 79 -46 79 -5 0 -9 -6 -9
-14z"/>
<path d="M3684 5180 c-93 -19 -195 -96 -239 -179 -62 -122 -28 -291 78 -387
69 -62 142 -87 238 -82 105 6 175 41 235 117 132 167 80 409 -109 500 -69 33
-140 44 -203 31z m182 -54 c135 -63 202 -214 160 -361 -25 -83 -108 -166 -191
-191 -125 -36 -252 3 -326 100 -45 59 -59 104 -59 187 0 118 79 236 184 273
67 24 172 20 232 -8z"/>
<path d="M3681 5047 c-28 -17 -50 -53 -51 -84 0 -20 5 -23 41 -23 33 0 42 4
46 21 4 15 12 19 31 17 37 -4 50 -31 28 -59 -9 -13 -28 -39 -41 -58 -38 -52
-34 -71 15 -71 23 0 40 5 40 11 0 7 21 34 46 61 44 47 46 52 41 95 -7 67 -40
96 -114 100 -37 2 -67 -2 -82 -10z"/>
<path d="M3716 4741 c-22 -25 -13 -58 20 -73 19 -9 28 -8 44 7 26 24 25 50 -2
69 -29 21 -41 20 -62 -3z"/>
<path d="M1478 5157 c-59 -23 -124 -64 -154 -99 -109 -129 -103 -322 14 -447
70 -74 125 -96 242 -96 83 0 101 3 145 27 68 35 122 92 154 158 22 46 26 69
26 140 0 73 -4 93 -28 141 -32 67 -100 132 -165 162 -59 26 -181 33 -234 14z
m190 -32 c69 -21 140 -80 177 -146 27 -48 30 -63 30 -139 0 -72 -4 -92 -27
-135 -31 -60 -77 -105 -138 -137 -62 -32 -193 -33 -260 -2 -60 28 -117 86
-146 148 -32 68 -33 180 -3 246 62 138 219 209 367 165z"/>
<path d="M1539 5037 c-58 -38 -84 -117 -60 -180 9 -22 3 -32 -55 -89 -35 -36
-64 -70 -64 -76 0 -18 38 -52 57 -52 22 0 113 99 113 123 0 16 4 18 23 12 119
-40 220 20 220 130 0 120 -136 198 -234 132z m141 -23 c56 -34 79 -122 44
-172 -32 -47 -103 -65 -154 -39 -33 17 -70 74 -70 109 0 91 101 148 180 102z
m-217 -298 c-44 -49 -51 -53 -59 -31 -10 24 65 99 83 83 10 -8 6 -19 -24 -52z"/>
<path d="M1587 5004 c-12 -12 4 -24 33 -24 30 0 70 -33 70 -57 0 -7 7 -13 15
-13 28 0 10 51 -29 82 -21 17 -76 24 -89 12z"/>
<path d="M2800 5161 c0 -13 70 -55 78 -46 4 4 -6 18 -23 31 -31 25 -55 31 -55
15z"/>
<path d="M2137 5102 c-30 -31 -34 -42 -14 -42 21 0 62 49 51 60 -7 7 -19 1
-37 -18z"/>
<path d="M3046 5089 c-10 -17 -15 -33 -11 -37 9 -9 56 49 49 60 -9 15 -19 8
-38 -23z"/>
<path d="M3290 5098 c0 -19 46 -73 53 -62 3 6 -4 24 -15 42 -20 33 -38 42 -38
20z"/>
<path d="M2930 5072 c0 -8 54 -52 65 -52 13 0 3 23 -17 41 -24 19 -48 25 -48
11z"/>
<path d="M2031 4994 c-30 -38 -14 -51 20 -18 16 15 29 31 29 36 0 17 -30 7
-49 -18z"/>
<path d="M2992 4987 c2 -15 8 -26 13 -25 12 3 8 29 -7 43 -6 7 -8 1 -6 -18z"/>
<path d="M3395 5000 c3 -5 11 -10 16 -10 6 0 7 5 4 10 -3 6 -11 10 -16 10 -6
0 -7 -4 -4 -10z"/>
<path d="M1950 4905 c-19 -23 -7 -39 13 -17 10 11 14 23 9 26 -5 3 -15 -1 -22
-9z"/>
<path d="M3018 4894 c-11 -10 15 -74 30 -74 9 0 12 6 8 16 -3 9 -9 27 -12 40
-6 23 -15 30 -26 18z"/>
<path d="M3054 4744 c3 -9 9 -27 12 -40 6 -22 34 -35 34 -15 0 25 -24 71 -37
71 -10 0 -13 -6 -9 -16z"/>
<path d="M910 4742 c0 -10 33 -42 43 -42 14 0 7 23 -10 36 -21 16 -33 18 -33
6z"/>
<path d="M1002 4654 c4 -21 55 -60 65 -51 7 8 -45 67 -60 67 -4 0 -7 -7 -5
-16z"/>
<path d="M3103 4595 c6 -39 22 -64 33 -53 8 9 -15 76 -28 84 -8 5 -9 -5 -5
-31z"/>
<path d="M1105 4560 c-10 -16 46 -73 59 -60 7 7 0 20 -21 41 -21 22 -33 27
-38 19z"/>
<path d="M4065 4560 c-3 -5 2 -24 11 -42 21 -42 21 -41 33 -33 7 4 4 20 -9 46
-22 41 -25 45 -35 29z"/>
<path d="M3620 4424 c0 -59 24 -55 28 4 2 33 0 42 -12 42 -12 0 -16 -11 -16
-46z"/>
<path d="M1200 4452 c0 -14 56 -63 63 -55 4 3 -5 19 -20 35 -27 28 -43 35 -43
20z"/>
<path d="M4130 4423 c0 -21 36 -70 45 -62 7 8 -26 79 -37 79 -4 0 -8 -8 -8
-17z"/>
<path d="M1305 4350 c-7 -11 31 -60 47 -60 13 0 9 13 -16 44 -16 19 -26 24
-31 16z"/>
<path d="M3626 4323 c-3 -3 -6 -24 -6 -45 0 -27 4 -38 15 -38 11 0 15 11 15
39 0 38 -10 57 -24 44z"/>
<path d="M4197 4304 c-8 -9 31 -84 43 -84 14 0 12 14 -7 55 -17 35 -24 41 -36
29z"/>
<path d="M4335 4298 c-4 -9 -4 -22 0 -28 3 -5 -1 -13 -9 -16 -36 -14 3 -38 44
-27 20 5 29 33 10 33 -5 0 -16 12 -24 28 -12 23 -16 24 -21 10z"/>
<path d="M4493 4279 c-47 -14 -43 -33 4 -24 46 8 55 13 48 26 -7 10 -9 10 -52
-2z"/>
<path d="M1286 4221 c-19 -20 -24 -31 -16 -36 13 -8 72 44 64 57 -9 14 -19 9
-48 -21z"/>
<path d="M3214 4193 c15 -55 18 -63 27 -63 12 0 12 22 -1 54 -11 29 -34 36
-26 9z"/>
<path d="M4185 4153 c-10 -24 -12 -40 -5 -47 6 -6 15 3 25 27 17 42 19 57 5
57 -5 0 -17 -17 -25 -37z"/>
<path d="M3620 4134 c0 -59 24 -55 28 4 2 33 0 42 -12 42 -12 0 -16 -11 -16
-46z"/>
<path d="M4376 4134 c8 -46 21 -64 30 -41 8 21 -8 69 -25 75 -9 3 -11 -6 -5
-34z"/>
<path d="M1186 4121 c-19 -20 -24 -31 -16 -36 13 -8 60 32 60 52 0 20 -14 16
-44 -16z"/>
<path d="M3255 4068 c-8 -19 11 -68 26 -68 8 0 9 11 5 32 -8 40 -23 57 -31 36z"/>
<path d="M4132 4027 c-15 -41 -15 -47 -2 -47 13 0 41 61 34 72 -10 16 -20 7
-32 -25z"/>
<path d="M1147 4043 c-7 -11 23 -83 34 -83 12 0 11 20 -2 59 -11 30 -23 39
-32 24z"/>
<path d="M3620 3994 c0 -27 4 -43 10 -39 6 3 10 24 10 46 0 21 -4 39 -10 39
-5 0 -10 -21 -10 -46z"/>
<path d="M4404 4008 c3 -13 6 -31 6 -40 0 -10 7 -18 15 -18 15 0 14 19 -1 68
-7 23 -27 13 -20 -10z"/>
<path d="M4073 3895 c-12 -26 -14 -38 -6 -46 9 -9 16 -2 27 26 19 44 20 55 6
55 -6 0 -18 -16 -27 -35z"/>
<path d="M1196 3912 c-7 -11 21 -72 34 -72 14 0 13 16 -5 50 -16 31 -21 35
-29 22z"/>
<path d="M4430 3862 c0 -16 7 -37 15 -48 14 -18 14 -17 15 13 0 37 -9 63 -21
63 -5 0 -9 -13 -9 -28z"/>
<path d="M4411 3746 c-12 -13 -18 -27 -13 -30 13 -8 64 33 57 45 -9 14 -20 11
-44 -15z"/>
<path d="M4325 3670 c-16 -16 -25 -33 -22 -37 10 -9 61 30 65 51 5 24 -11 19
-43 -14z"/>
<path d="M794 3658 c-9 -14 -1 -18 41 -25 29 -5 37 -3 33 8 -5 16 -66 30 -74
17z"/>
<path d="M3955 3624 c-18 -44 -18 -44 -1 -44 12 0 36 47 36 71 0 22 -21 5 -35
-27z"/>
<path d="M936 3631 c-8 -12 1 -18 45 -26 44 -8 64 11 22 21 -15 3 -35 8 -45
10 -9 3 -19 0 -22 -5z"/>
<path d="M1090 3597 c0 -16 63 -32 81 -21 16 9 -1 21 -43 28 -29 5 -38 4 -38
-7z"/>
<path d="M1246 3585 c-17 -26 -22 -65 -7 -65 5 0 11 7 14 15 5 13 10 13 42 0
29 -13 35 -13 35 -2 0 8 -11 19 -25 25 -15 7 -25 20 -25 32 0 27 -14 25 -34
-5z"/>
<path d="M4275 3591 c-8 -14 44 -83 56 -75 5 3 1 19 -8 35 -23 40 -39 53 -48
40z"/>
<path d="M3304 3516 c-9 -53 2 -66 20 -24 20 46 20 58 1 58 -8 0 -17 -14 -21
-34z"/>
<path d="M3905 3495 c-12 -26 -13 -41 -6 -48 7 -7 15 1 26 28 12 26 13 41 6
48 -7 7 -15 -1 -26 -28z"/>
<path d="M1380 3501 c0 -11 54 -51 68 -51 26 0 19 20 -14 39 -38 23 -54 26
-54 12z"/>
<path d="M1175 3450 c-17 -34 -19 -50 -5 -50 10 0 40 52 40 70 0 20 -20 9 -35
-20z"/>
<path d="M4360 3469 c0 -15 39 -69 51 -69 15 0 10 20 -12 51 -21 29 -39 38
-39 18z"/>
<path d="M3430 3453 c-56 -7 -61 -23 -7 -23 35 0 47 4 47 15 0 8 -1 14 -2 13
-2 0 -19 -3 -38 -5z"/>
<path d="M3530 3445 c0 -13 9 -16 48 -13 26 2 47 8 47 13 0 6 -21 11 -47 13
-39 3 -48 0 -48 -13z"/>
<path d="M3257 3421 c-15 -16 -27 -32 -27 -35 0 -12 27 -5 46 12 10 10 27 21
37 25 24 9 21 27 -6 27 -12 0 -34 -13 -50 -29z"/>
<path d="M1510 3421 c0 -12 62 -51 72 -45 14 9 8 19 -21 37 -32 19 -51 22 -51
8z"/>
<path d="M3680 3420 c0 -8 70 -50 85 -50 3 0 5 6 5 13 0 7 -16 21 -35 30 -41
19 -55 21 -55 7z"/>
<path d="M3864 3386 c-4 -10 -18 -22 -33 -28 l-26 -10 30 -24 c17 -13 39 -24
49 -24 18 0 18 1 2 19 -14 16 -15 23 -6 41 8 16 9 25 1 33 -7 7 -12 5 -17 -7z"/>
<path d="M4446 3362 c-8 -14 33 -72 51 -72 19 0 16 11 -16 49 -18 22 -30 30
-35 23z"/>
<path d="M1635 3351 c-7 -12 47 -51 70 -51 15 0 15 2 4 16 -19 23 -67 45 -74
35z"/>
<path d="M1102 3318 c-19 -30 -21 -48 -4 -48 8 0 42 57 42 71 0 19 -19 8 -38
-23z"/>
<path d="M1760 3268 c0 -13 53 -48 71 -48 20 0 7 21 -23 40 -38 23 -48 25 -48
8z"/>
<path d="M3946 3261 c-8 -12 53 -63 65 -55 6 3 3 14 -8 26 -24 27 -50 40 -57
29z"/>
<path d="M1031 3190 c-18 -33 -20 -40 -7 -40 19 0 51 59 39 71 -6 6 -18 -7
-32 -31z"/>
<path d="M1890 3191 c0 -12 54 -51 69 -51 21 0 11 19 -23 39 -37 23 -46 25
-46 12z"/>
<path d="M4060 3167 c0 -14 52 -57 70 -57 20 0 10 18 -24 44 -39 30 -46 31
-46 13z"/>
<path d="M965 3070 c-17 -32 -19 -50 -7 -50 9 0 42 54 42 69 0 21 -20 11 -35
-19z"/>
<path d="M4180 3071 c0 -15 63 -60 74 -54 5 4 -5 19 -23 35 -32 28 -51 36 -51
19z"/>
<path d="M3168 3019 c-2 -22 0 -42 3 -45 10 -6 15 5 23 49 5 29 4 37 -7 37
-10 0 -16 -14 -19 -41z"/>
<path d="M2145 3030 c-5 -8 62 -50 80 -50 16 0 1 21 -29 39 -38 24 -42 25 -51
11z"/>
<path d="M1473 2996 c-163 -53 -266 -222 -233 -382 15 -76 47 -131 110 -187
132 -119 338 -108 462 24 67 71 91 141 86 244 -5 94 -36 163 -101 222 -85 77
-226 111 -324 79z m234 -56 c97 -48 153 -131 161 -241 6 -92 -17 -159 -80
-225 -61 -65 -128 -95 -212 -96 -123 -2 -229 61 -281 166 -49 99 -32 234 40
322 93 113 234 141 372 74z"/>
<path d="M1493 2868 c-6 -7 -13 -21 -16 -30 -4 -13 -20 -18 -64 -20 l-58 -3
-3 -135 c-1 -74 0 -145 3 -158 l5 -22 213 2 212 3 0 155 0 155 -67 3 c-57 2
-68 6 -68 20 0 10 -5 23 -12 30 -16 16 -133 16 -145 0z m127 -33 c0 -12 -13
-15 -55 -15 -51 0 -65 7 -48 23 3 4 28 7 55 7 36 0 48 -4 48 -15z m140 -86 c0
-36 -3 -41 -32 -54 -50 -20 -108 -29 -108 -16 0 7 -20 11 -50 11 -30 0 -50 -4
-50 -11 0 -15 -71 -4 -111 17 -25 12 -29 21 -29 54 l0 40 190 0 190 0 0 -41z
m-298 -101 c32 -7 48 -16 51 -29 7 -27 97 -28 104 -1 3 12 20 22 51 29 26 6
57 14 70 18 21 7 22 5 22 -64 l0 -71 -190 0 -190 0 0 71 c0 64 2 70 18 64 9
-4 38 -12 64 -17z m126 -1 c2 -12 -3 -17 -17 -17 -15 0 -21 6 -21 21 0 25 33
22 38 -4z"/>
<path d="M3613 2992 c-147 -52 -227 -164 -228 -317 0 -102 31 -171 110 -244
166 -151 427 -98 524 108 37 80 37 192 0 272 -72 153 -256 235 -406 181z m234
-48 c186 -90 227 -346 76 -485 -64 -58 -114 -79 -199 -79 -87 0 -149 20 -203
66 -81 70 -123 187 -102 285 43 198 248 301 428 213z"/>
<path d="M3620 2809 c-52 -45 -103 -87 -114 -94 -11 -9 -16 -20 -12 -30 7 -19
0 -24 139 94 l87 73 105 -92 c77 -67 110 -90 123 -85 14 6 11 12 -21 38 -33
29 -37 37 -37 79 0 67 -7 78 -46 78 -26 0 -37 -5 -42 -20 -7 -19 -9 -19 -42 9
-19 17 -37 30 -40 30 -3 0 -48 -36 -100 -80z m230 0 c0 -17 -4 -28 -10 -24 -5
3 -10 17 -10 31 0 13 5 24 10 24 6 0 10 -14 10 -31z"/>
<path d="M3623 2738 l-83 -72 0 -88 0 -89 78 3 77 3 3 53 c3 48 5 52 28 52 23
0 24 -3 24 -55 l0 -55 75 0 75 0 0 83 c0 52 -5 89 -12 98 -29 34 -157 139
-169 138 -8 0 -51 -32 -96 -71z m173 -24 l74 -66 0 -64 0 -64 -44 0 -45 0 -3
53 -3 52 -55 0 -55 0 -3 -52 -3 -53 -45 0 -44 0 0 64 0 64 73 66 c39 36 74 66
76 66 1 0 36 -30 77 -66z"/>
<path d="M4295 2981 c-8 -13 61 -64 75 -56 8 5 0 17 -22 36 -36 31 -44 34 -53
20z"/>
<path d="M895 2950 c-17 -34 -19 -50 -5 -50 10 0 40 52 40 70 0 20 -20 9 -35
-20z"/>
<path d="M2270 2953 c0 -8 73 -53 84 -53 17 0 2 23 -26 40 -34 20 -58 26 -58
13z"/>
<path d="M3160 2875 c0 -33 4 -45 13 -42 7 2 12 20 12 42 0 22 -5 40 -12 43
-9 2 -13 -10 -13 -43z"/>
<path d="M3153 2798 c-13 -18 -4 -100 11 -95 6 2 11 18 11 36 0 20 6 36 18 42
9 6 17 14 17 19 0 14 -46 12 -57 -2z"/>
<path d="M3023 2773 c-24 -5 -32 -33 -9 -33 23 0 76 22 76 31 0 9 -26 10 -67
2z"/>
<path d="M2871 2729 c-17 -7 -21 -13 -14 -20 13 -13 75 2 81 19 4 14 -32 15
-67 1z"/>
<path d="M3147 2633 c-4 -3 -7 -21 -7 -40 0 -23 5 -33 15 -33 11 0 15 11 15
40 0 38 -8 49 -23 33z"/>
<path d="M3140 2454 c0 -27 4 -43 10 -39 6 3 10 24 10 46 0 21 -4 39 -10 39
-5 0 -10 -21 -10 -46z"/>
<path d="M1920 2407 c0 -14 40 -37 65 -37 27 0 15 20 -21 35 -44 18 -44 18
-44 2z"/>
<path d="M2060 2346 c0 -12 47 -36 71 -36 22 0 6 22 -26 36 -42 17 -45 17 -45
0z"/>
<path d="M3132 2318 c2 -24 8 -43 13 -43 6 0 11 19 13 43 3 33 0 42 -13 42
-13 0 -16 -9 -13 -42z"/>
<path d="M2195 2290 c-7 -11 69 -52 79 -43 13 13 5 23 -30 38 -43 18 -41 18
-49 5z"/>
<path d="M2335 2230 c-3 -5 12 -18 34 -30 26 -13 42 -16 46 -9 8 12 9 12 -32
33 -37 19 -40 19 -48 6z"/>
<path d="M3095 2195 c-11 -19 -16 -38 -11 -42 10 -10 45 36 46 60 0 27 -15 20
-35 -18z"/>
<path d="M3022 2068 c-20 -31 -20 -48 -2 -48 10 0 40 52 40 70 0 20 -18 10
-38 -22z"/>
<path d="M2955 1950 c-17 -34 -19 -50 -5 -50 10 0 40 52 40 70 0 20 -20 9 -35
-20z"/>
<path d="M207 3813 c46 -183 41 -173 68 -173 16 0 25 6 25 16 0 21 41 167 50
177 4 5 13 -13 19 -40 32 -127 42 -153 61 -153 21 0 19 -4 64 173 24 98 24 98
3 95 -17 -3 -24 -17 -41 -95 -12 -50 -24 -94 -27 -98 -4 -3 -17 38 -31 92 -20
81 -27 99 -44 101 -18 3 -24 -10 -49 -105 l-29 -108 -12 40 c-7 22 -18 70 -25
108 -11 59 -15 67 -35 67 l-22 0 25 -97z"/>
<path d="M4840 3775 l0 -135 90 0 c73 0 90 3 90 15 0 12 -14 15 -70 15 l-70 0
0 45 0 45 65 0 c51 0 65 3 65 15 0 12 -14 15 -65 15 l-65 0 0 45 0 45 65 0
c51 0 65 3 65 15 0 12 -16 15 -85 15 l-85 0 0 -135z"/>
<path d="M377 3443 c37 -232 100 -430 208 -648 185 -375 431 -655 785 -890
307 -205 644 -330 1003 -373 60 -8 67 -7 67 9 0 14 -16 19 -87 29 -357 48
-680 173 -989 381 -480 323 -824 840 -933 1401 -11 57 -22 120 -26 141 -4 27
-11 37 -24 37 -17 0 -18 -4 -4 -87z"/>
<path d="M4855 3488 c-37 -243 -107 -468 -210 -676 -123 -247 -234 -402 -424
-593 -360 -359 -805 -579 -1314 -649 -72 -10 -87 -15 -85 -29 4 -19 34 -18
173 5 205 34 372 85 567 174 631 287 1096 829 1270 1479 34 129 69 311 62 323
-14 22 -33 4 -39 -34z"/>
<path d="M2566 1609 c-27 -21 -34 -56 -16 -89 5 -10 38 -28 74 -40 54 -18 76
-34 76 -55 0 -2 -7 -11 -16 -19 -30 -30 -114 -12 -114 25 0 5 -9 9 -20 9 -27
0 -25 -26 5 -55 19 -20 34 -25 78 -25 66 0 97 24 97 74 0 40 -15 54 -82 76
-59 19 -79 41 -62 68 8 11 24 17 50 17 31 0 41 -5 49 -22 12 -28 45 -31 45 -4
0 31 -47 61 -95 61 -28 0 -51 -7 -69 -21z"/>
<path d="M297 1184 c-34 -34 -65 -34 2334 -34 2224 0 2340 1 2337 18 -3 16
-123 17 -2334 20 -1282 1 -2333 -1 -2337 -4z"/>
<path d="M2780 995 c-56 -18 -106 -65 -134 -125 -15 -34 -20 -66 -21 -131 0
-76 3 -92 30 -144 23 -45 42 -66 79 -90 44 -26 58 -30 125 -30 121 0 204 54
226 148 l7 27 -57 0 c-51 0 -59 -3 -89 -35 -29 -30 -40 -35 -78 -35 -80 0
-118 52 -118 160 0 73 17 119 53 140 53 33 94 26 138 -20 36 -37 42 -40 95
-40 l56 0 -6 28 c-28 115 -179 188 -306 147z"/>
<path d="M310 950 l0 -50 80 0 80 0 0 -210 0 -210 65 0 65 0 0 210 0 210 81 0
80 0 -3 48 -3 47 -222 3 -223 2 0 -50z"/>
<path d="M830 740 l0 -260 185 0 185 0 0 50 0 50 -125 0 -125 0 0 55 0 55 110
0 110 0 0 50 0 50 -110 0 -110 0 0 55 0 55 119 0 119 0 7 40 c4 21 4 44 0 50
-4 6 -73 10 -186 10 l-179 0 0 -260z"/>
<path d="M1280 740 l0 -260 60 0 60 0 0 153 1 152 57 -150 58 -150 40 -3 41
-3 53 143 c29 79 58 148 63 153 6 6 8 -17 4 -67 -3 -43 -3 -112 0 -153 l6 -75
59 0 58 0 -2 258 -3 257 -77 3 -76 3 -23 -68 c-31 -95 -101 -275 -105 -271 -2
2 -21 53 -43 113 -21 61 -49 136 -61 168 l-21 57 -75 0 -74 0 0 -260z"/>
<path d="M1940 808 c0 -225 10 -259 84 -303 93 -54 244 -40 304 29 42 48 52
108 52 302 l0 165 -62 -3 -63 -3 -5 -188 c-5 -183 -6 -189 -29 -208 -14 -11
-39 -19 -61 -19 -92 0 -100 20 -100 245 l0 175 -60 0 -60 0 0 -192z"/>
<path d="M3170 740 l0 -260 180 0 180 0 0 50 0 50 -120 0 -120 0 0 55 0 55
110 0 110 0 0 50 0 50 -110 0 -110 0 0 55 0 55 120 0 120 0 0 50 0 50 -180 0
-180 0 0 -260z"/>
<path d="M3620 740 l0 -260 60 0 60 0 0 80 0 80 63 0 c87 0 136 16 178 59 90
90 47 256 -76 290 -22 6 -95 11 -162 11 l-123 0 0 -260z m243 149 c30 -16 37
-28 37 -71 0 -56 -29 -78 -102 -78 l-58 0 0 80 0 80 51 0 c28 0 60 -5 72 -11z"/>
<path d="M4206 991 c-3 -4 -28 -71 -55 -147 -27 -76 -67 -190 -90 -252 l-41
-113 67 3 67 3 15 47 c14 46 15 47 65 53 28 4 69 5 90 3 37 -3 40 -5 56 -53
l17 -50 68 -3 c62 -3 67 -1 60 15 -4 10 -45 123 -91 251 -45 128 -86 237 -89
242 -8 12 -132 13 -139 1z m99 -221 c14 -40 25 -77 25 -82 0 -4 -25 -8 -56 -8
-43 0 -55 3 -51 14 3 7 15 46 27 86 12 39 23 70 26 68 2 -3 15 -38 29 -78z"/>
<path d="M4510 950 l0 -50 80 0 80 0 0 -210 0 -210 60 0 60 0 0 210 0 210 80
0 80 0 0 50 0 50 -220 0 -220 0 0 -50z"/>
<path d="M290 315 c0 -13 267 -15 2340 -15 2075 0 2339 2 2334 15 -5 13 -275
15 -2340 15 -2068 0 -2334 -2 -2334 -15z"/>
</g>
</svg>
